<svg width="25" height="25" viewBox="0 0 25 25" fill="none" xmlns="http://www.w3.org/2000/svg">
<path d="M11.1357 3.01465C11.839 2.88222 12.5614 2.88222 13.2646 3.01465C15.0102 3.34348 16.4628 4.79678 19.3682 7.70215C20.4689 8.80286 21.0197 9.35308 21.3721 10.0205C21.517 10.295 21.6359 10.5824 21.7275 10.8789C21.9503 11.6 21.9502 12.3789 21.9502 13.9355V15.4502C21.9502 18.2625 21.9506 19.6695 21.2344 20.6553C21.0031 20.9736 20.7226 21.2531 20.4043 21.4844C19.4186 22.2006 18.0125 22.2002 15.2002 22.2002H9.2002C6.38791 22.2002 4.98184 22.2006 3.99609 21.4844C3.67777 21.2531 3.3973 20.9736 3.16602 20.6553C2.44983 19.6695 2.4502 18.2625 2.4502 15.4502V13.9355C2.4502 12.3789 2.45008 11.6 2.67285 10.8789C2.76447 10.5824 2.88342 10.295 3.02832 10.0205C3.38069 9.35309 3.93152 8.80286 5.03223 7.70215C7.9376 4.79678 9.3902 3.34348 11.1357 3.01465ZM8.2002 16.7842C7.78598 16.7842 7.4502 17.12 7.4502 17.5342C7.45029 17.9483 7.78604 18.2842 8.2002 18.2842H16.2002C16.6143 18.2842 16.9501 17.9483 16.9502 17.5342C16.9502 17.12 16.6144 16.7842 16.2002 16.7842H8.2002Z" fill="#0052FF"/>
</svg>
