<svg width="25" height="25" viewBox="0 0 25 25" fill="none" xmlns="http://www.w3.org/2000/svg">
<path d="M14.4019 13.0332H11.1996C9.75671 13.0332 8.46513 13.9283 7.95848 15.2793C7.64025 16.128 8.26759 17.0332 9.17392 17.0332H16.4276C17.334 17.0332 17.9613 16.128 17.6431 15.2793C17.1364 13.9283 15.8449 13.0332 14.4019 13.0332Z" stroke="#718096" stroke-width="1.5" stroke-linejoin="round"/>
<path d="M10.8809 8.5332C10.8809 7.42863 11.7763 6.5332 12.8809 6.5332C13.9854 6.5332 14.8809 7.42863 14.8809 8.5332C14.8809 9.63777 13.9854 10.5332 12.8809 10.5332C11.7763 10.5332 10.8809 9.63777 10.8809 8.5332Z" stroke="#718096" stroke-width="1.5" stroke-linejoin="round"/>
<path d="M12.8008 21.5332C17.7713 21.5332 21.8008 17.5038 21.8008 12.5332C21.8008 7.56264 17.7713 3.5332 12.8008 3.5332C7.83022 3.5332 3.80078 7.56264 3.80078 12.5332C3.80078 17.5038 7.83022 21.5332 12.8008 21.5332Z" stroke="#718096" stroke-width="1.5" stroke-linejoin="round"/>
</svg>
