<svg width="25" height="25" viewBox="0 0 25 25" fill="none" xmlns="http://www.w3.org/2000/svg">
<path d="M8.7998 6.5332V8.53325M8.7998 8.53325V10.5332M8.7998 8.53325H6.7998M8.7998 8.53325H10.7998M7.38559 15.119L8.79984 16.5332M8.79984 16.5332L10.214 17.9474M8.79984 16.5332L7.38562 17.9474M8.79984 16.5332L10.214 15.119M14.7998 8.5332H18.7998M14.7998 15.0332H18.7998M14.7998 18.0332H18.7998M10.9998 21.5332H14.5998C17.5996 21.5332 19.0995 21.5332 20.1509 20.7693C20.4905 20.5226 20.7892 20.2239 21.0359 19.8843C21.7998 18.8329 21.7998 17.333 21.7998 14.3332V10.7332C21.7998 7.73342 21.7998 6.23352 21.0359 5.18206C20.7892 4.84248 20.4905 4.54385 20.1509 4.29714C19.0995 3.5332 17.5996 3.5332 14.5998 3.5332H10.9998C8.00002 3.5332 6.50013 3.5332 5.44866 4.29714C5.10908 4.54385 4.81046 4.84248 4.56374 5.18206C3.7998 6.23352 3.7998 7.73342 3.7998 10.7332V14.3332C3.7998 17.333 3.7998 18.8329 4.56374 19.8843C4.81046 20.2239 5.10908 20.5226 5.44866 20.7693C6.50013 21.5332 8.00002 21.5332 10.9998 21.5332Z" stroke="#718096" stroke-width="1.5" stroke-linecap="round" stroke-linejoin="round"/>
</svg>
